# xmcd
#
# Track frame offsets:
#	150
#	14682
#	36125
#	53290
#	72977
#	89472
#	105795
#	121870
#	138652
#	159635
#	174050
#	194787
#
# Disc length: 2867 seconds
#
# Revision: 0
# Processed by: cddbd v1.5.1PL0 Copyright (c) Steve Scherf et al.
# Submitted via: dBpowerAMP V4.0
#
DISCID=990b310c
DTITLE=Lupita D´alessio - Estoy aqui
DYEAR=1900
DGENRE=
TTITLE0=Espejo
TTITLE1=Aprendiz
TTITLE2=Ya no soy igual
TTITLE3=Vivir sin ti
TTITLE4=A poco no
TTITLE5=Chapeando en oro
TTITLE6=Si estoy contigo
TTITLE7=La verdad por delante
TTITLE8=No sé
TTITLE9=Me estas desperdiciando
TTITLE10=Culpable o inocente
TTITLE11=Incompatibles
EXTD=
EXTT0=
EXTT1=
EXTT2=
EXTT3=
EXTT4=
EXTT5=
EXTT6=
EXTT7=
EXTT8=
EXTT9=
EXTT10=
EXTT11=
PLAYORDER=
